HIERARCHY
ROOT mixamorig:Hips
{
	OFFSET 0.000000 101.145821 0.000000
	CHANNELS 6 Xposition Yposition Zposition Xrotation Yrotation Zrotation
	JOINT mixamorig:Spine
	{
		OFFSET 0.000000 9.527199 -1.123700
		CHANNELS 3 Xrotation Yrotation Zrotation
		JOINT mixamorig:Spine1
		{
			OFFSET 0.000000 11.115059 -1.310932
			CHANNELS 3 Xrotation Yrotation Zrotation
			JOINT mixamorig:Spine2
			{
				OFFSET 0.000000 12.702950 -1.498210
				CHANNELS 3 Xrotation Yrotation Zrotation
				JOINT mixamorig:Neck
				{
					OFFSET 0.000000 14.290848 -1.685491
					CHANNELS 3 Xrotation Yrotation Zrotation
					JOINT mixamorig:Head
					{
						OFFSET 0.000000 7.216309 1.821200
						CHANNELS 3 Xrotation Yrotation Zrotation
						JOINT mixamorig:HeadTop_End
						{
							OFFSET 0.000000 22.453400 5.666602
							CHANNELS 3 Xrotation Yrotation Zrotation
							End Site
							{
								OFFSET 0.000000 23.157410 0.000000
							}
						}
					}
				}
				JOINT mixamorig:LeftShoulder
				{
					OFFSET 6.857200 12.380463 -1.717347
					CHANNELS 3 Xrotation Yrotation Zrotation
					JOINT mixamorig:LeftArm
					{
						OFFSET 14.252844 -3.742325 -0.063730
						CHANNELS 3 Xrotation Yrotation Zrotation
						JOINT mixamorig:LeftForeArm
						{
							OFFSET 26.388903 0.000000 0.000000
							CHANNELS 3 Xrotation Yrotation Zrotation
							JOINT mixamorig:LeftHand
							{
								OFFSET 22.187302 0.000000 0.000000
								CHANNELS 3 Xrotation Yrotation Zrotation
								JOINT mixamorig:LeftHandThumb1
								{
									OFFSET 3.371109 -1.418762 2.720964
									CHANNELS 3 Xrotation Yrotation Zrotation
									JOINT mixamorig:LeftHandThumb2
									{
										OFFSET 2.824837 -1.630920 1.630919
										CHANNELS 3 Xrotation Yrotation Zrotation
										JOINT mixamorig:LeftHandThumb3
										{
											OFFSET 2.596542 -1.499115 1.499113
											CHANNELS 3 Xrotation Yrotation Zrotation
											JOINT mixamorig:LeftHandThumb4
											{
												OFFSET 2.051956 -1.184692 1.184698
												CHANNELS 3 Xrotation Yrotation Zrotation
												End Site
												{
													OFFSET 1.671860 -1.108948 1.729937
												}
											}
										}
									}
								}
								JOINT mixamorig:LeftHandIndex1
								{
									OFFSET 10.021935 -0.373764 2.647338
									CHANNELS 3 Xrotation Yrotation Zrotation
									JOINT mixamorig:LeftHandIndex2
									{
										OFFSET 3.332962 0.000000 0.000000
										CHANNELS 3 Xrotation Yrotation Zrotation
										JOINT mixamorig:LeftHandIndex3
										{
											OFFSET 3.099510 0.000000 0.000000
											CHANNELS 3 Xrotation Yrotation Zrotation
											JOINT mixamorig:LeftHandIndex4
											{
												OFFSET 2.696228 0.000000 0.000000
												CHANNELS 3 Xrotation Yrotation Zrotation
												End Site
												{
													OFFSET 2.696205 -0.000259 -0.011797
												}
											}
										}
									}
								}
								JOINT mixamorig:LeftHandMiddle1
								{
									OFFSET 10.302925 0.000000 0.000000
									CHANNELS 3 Xrotation Yrotation Zrotation
									JOINT mixamorig:LeftHandMiddle2
									{
										OFFSET 3.422028 0.000000 0.000000
										CHANNELS 3 Xrotation Yrotation Zrotation
										JOINT mixamorig:LeftHandMiddle3
										{
											OFFSET 3.178337 0.000000 0.000000
											CHANNELS 3 Xrotation Yrotation Zrotation
											JOINT mixamorig:LeftHandMiddle4
											{
												OFFSET 2.810799 0.000000 0.000000
												CHANNELS 3 Xrotation Yrotation Zrotation
												End Site
												{
													OFFSET 2.810806 0.000031 0.001400
												}
											}
										}
									}
								}
								JOINT mixamorig:LeftHandRing1
								{
									OFFSET 10.179443 0.007751 -2.129168
									CHANNELS 3 Xrotation Yrotation Zrotation
									JOINT mixamorig:LeftHandRing2
									{
										OFFSET 2.891701 0.000000 0.000000
										CHANNELS 3 Xrotation Yrotation Zrotation
										JOINT mixamorig:LeftHandRing3
										{
											OFFSET 2.655098 0.000000 0.000000
											CHANNELS 3 Xrotation Yrotation Zrotation
											JOINT mixamorig:LeftHandRing4
											{
												OFFSET 2.316605 0.000000 0.000000
												CHANNELS 3 Xrotation Yrotation Zrotation
												End Site
												{
													OFFSET 2.316605 0.000122 0.003198
												}
											}
										}
									}
								}
								JOINT mixamorig:LeftHandPinky1
								{
									OFFSET 8.693832 -0.378220 -4.286855
									CHANNELS 3 Xrotation Yrotation Zrotation
									JOINT mixamorig:LeftHandPinky2
									{
										OFFSET 2.734833 0.000000 0.000000
										CHANNELS 3 Xrotation Yrotation Zrotation
										JOINT mixamorig:LeftHandPinky3
										{
											OFFSET 2.249535 0.000000 0.000000
											CHANNELS 3 Xrotation Yrotation Zrotation
											JOINT mixamorig:LeftHandPinky4
											{
												OFFSET 1.794998 0.000000 0.000000
												CHANNELS 3 Xrotation Yrotation Zrotation
												End Site
												{
													OFFSET 1.794998 -0.000015 -0.000800
												}
											}
										}
									}
								}
							}
						}
					}
				}
				JOINT mixamorig:RightShoulder
				{
					OFFSET -6.857200 12.380539 -1.653616
					CHANNELS 3 Xrotation Yrotation Zrotation
					JOINT mixamorig:RightArm
					{
						OFFSET -14.252825 -3.742401 0.063731
						CHANNELS 3 Xrotation Yrotation Zrotation
						JOINT mixamorig:RightForeArm
						{
							OFFSET -26.397295 0.000000 0.000000
							CHANNELS 3 Xrotation Yrotation Zrotation
							JOINT mixamorig:RightHand
							{
								OFFSET -22.188801 0.000000 0.000000
								CHANNELS 3 Xrotation Yrotation Zrotation
								JOINT mixamorig:RightHandThumb1
								{
									OFFSET -3.149918 -1.211151 2.536731
									CHANNELS 3 Xrotation Yrotation Zrotation
									JOINT mixamorig:RightHandThumb2
									{
										OFFSET -2.616150 -1.510437 1.510437
										CHANNELS 3 Xrotation Yrotation Zrotation
										JOINT mixamorig:RightHandThumb3
										{
											OFFSET -2.719131 -1.569885 1.569892
											CHANNELS 3 Xrotation Yrotation Zrotation
											JOINT mixamorig:RightHandThumb4
											{
												OFFSET -2.417221 -1.395584 1.395586
												CHANNELS 3 Xrotation Yrotation Zrotation
												End Site
												{
													OFFSET -2.163742 -1.361862 1.789371
												}
											}
										}
									}
								}
								JOINT mixamorig:RightHandIndex1
								{
									OFFSET -10.216621 -0.262512 2.578756
									CHANNELS 3 Xrotation Yrotation Zrotation
									JOINT mixamorig:RightHandIndex2
									{
										OFFSET -3.227623 0.000000 0.000000
										CHANNELS 3 Xrotation Yrotation Zrotation
										JOINT mixamorig:RightHandIndex3
										{
											OFFSET -3.066185 0.000000 0.000000
											CHANNELS 3 Xrotation Yrotation Zrotation
											JOINT mixamorig:RightHandIndex4
											{
												OFFSET -2.649925 0.000000 0.000000
												CHANNELS 3 Xrotation Yrotation Zrotation
												End Site
												{
													OFFSET -2.649895 0.000244 0.011397
												}
											}
										}
									}
								}
								JOINT mixamorig:RightHandMiddle1
								{
									OFFSET -10.221970 0.000000 0.000000
									CHANNELS 3 Xrotation Yrotation Zrotation
									JOINT mixamorig:RightHandMiddle2
									{
										OFFSET -3.459976 0.000000 0.000000
										CHANNELS 3 Xrotation Yrotation Zrotation
										JOINT mixamorig:RightHandMiddle3
										{
											OFFSET -3.247513 0.000000 0.000000
											CHANNELS 3 Xrotation Yrotation Zrotation
											JOINT mixamorig:RightHandMiddle4
											{
												OFFSET -2.860039 0.000000 0.000000
												CHANNELS 3 Xrotation Yrotation Zrotation
												End Site
												{
													OFFSET -2.859993 -0.000305 -0.014497
												}
											}
										}
									}
								}
								JOINT mixamorig:RightHandRing1
								{
									OFFSET -10.004440 -0.046616 -2.173048
									CHANNELS 3 Xrotation Yrotation Zrotation
									JOINT mixamorig:RightHandRing2
									{
										OFFSET -2.852303 0.000000 0.000000
										CHANNELS 3 Xrotation Yrotation Zrotation
										JOINT mixamorig:RightHandRing3
										{
											OFFSET -2.729507 0.000000 0.000000
											CHANNELS 3 Xrotation Yrotation Zrotation
											JOINT mixamorig:RightHandRing4
											{
												OFFSET -2.397408 0.000000 0.000000
												CHANNELS 3 Xrotation Yrotation Zrotation
												End Site
												{
													OFFSET -2.397400 0.000137 0.004098
												}
											}
										}
									}
								}
								JOINT mixamorig:RightHandPinky1
								{
									OFFSET -8.757751 -0.242249 -4.382912
									CHANNELS 3 Xrotation Yrotation Zrotation
									JOINT mixamorig:RightHandPinky2
									{
										OFFSET -2.696320 0.000000 0.000000
										CHANNELS 3 Xrotation Yrotation Zrotation
										JOINT mixamorig:RightHandPinky3
										{
											OFFSET -2.184341 0.000000 0.000000
											CHANNELS 3 Xrotation Yrotation Zrotation
											JOINT mixamorig:RightHandPinky4
											{
												OFFSET -1.831001 0.000000 0.000000
												CHANNELS 3 Xrotation Yrotation Zrotation
												End Site
												{
													OFFSET -1.831009 0.000061 0.002299
												}
											}
										}
									}
								}
							}
						}
					}
				}
			}
		}
	}
	JOINT mixamorig:LeftUpLeg
	{
		OFFSET 8.558900 -5.291702 -0.376000
		CHANNELS 3 Xrotation Yrotation Zrotation
		JOINT mixamorig:LeftLeg
		{
			OFFSET 0.140724 -42.572769 -2.364375
			CHANNELS 3 Xrotation Yrotation Zrotation
			JOINT mixamorig:LeftFoot
			{
				OFFSET -0.140728 -41.542858 -4.122118
				CHANNELS 3 Xrotation Yrotation Zrotation
				JOINT mixamorig:LeftToeBase
				{
					OFFSET 1.871619 -9.935534 15.566000
					CHANNELS 3 Xrotation Yrotation Zrotation
					JOINT mixamorig:LeftToe_End
					{
						OFFSET 0.795664 0.495370 6.911238
						CHANNELS 3 Xrotation Yrotation Zrotation
						End Site
						{
							OFFSET 0.795664 0.495370 6.911236
						}
					}
				}
			}
		}
	}
	JOINT mixamorig:RightUpLeg
	{
		OFFSET -8.558900 -5.291702 -0.358400
		CHANNELS 3 Xrotation Yrotation Zrotation
		JOINT mixamorig:RightLeg
		{
			OFFSET -0.140737 -42.572708 -2.288581
			CHANNELS 3 Xrotation Yrotation Zrotation
			JOINT mixamorig:RightFoot
			{
				OFFSET 0.140738 -41.543118 -3.267981
				CHANNELS 3 Xrotation Yrotation Zrotation
				JOINT mixamorig:RightToeBase
				{
					OFFSET -1.871551 -9.934559 14.362027
					CHANNELS 3 Xrotation Yrotation Zrotation
					JOINT mixamorig:RightToe_End
					{
						OFFSET -0.795640 0.495778 6.879520
						CHANNELS 3 Xrotation Yrotation Zrotation
						End Site
						{
							OFFSET -0.795640 0.495778 6.879520
						}
					}
				}
			}
		}
	}
}
MOTION
Frames: 4
Frame Time: 0.033333
-0.141110 99.720825 0.068867 -9.644207 5.127776 4.520371 15.785962 -5.172168 -2.325519 2.828927 -1.297233 -0.520220 2.839532 -1.291909 -0.480963 -10.214223 -0.289804 1.928839 0.642530 3.946486 -0.951178 -0.000000 0.000000 -0.000000 1.783124 -2.817914 -5.367527 8.347178 -11.449684 -68.845978 0.000004 -33.539029 -0.000003 -23.608523 5.693686 2.838380 -3.469775 3.607314 7.883168 9.703620 22.223521 2.891179 -5.879031 9.699131 15.674873 0.000001 -0.000004 0.000001 0.162360 3.429607 -10.498179 0.209649 1.554735 -15.358567 0.209647 1.554737 -15.358580 0.000000 -0.000000 -0.000000 0.362533 4.206372 -18.344220 0.474615 2.311796 -23.200240 0.474596 2.311783 -23.200223 -0.000000 0.000000 0.000001 0.689006 4.991710 -26.673246 0.865727 3.066791 -31.521456 0.865736 3.066794 -31.521446 0.000000 -0.000000 -0.000001 0.902496 5.377888 -30.995361 1.110580 3.433639 -35.838173 1.110575 3.433622 -35.838146 -0.000000 -0.000001 0.000000 0.815655 9.465464 15.261703 -2.962836 1.768760 67.176720 -0.000006 20.011869 0.000004 1.318020 -7.062435 -8.055848 -1.986182 -5.435662 -3.761596 8.766488 -20.697673 -3.062053 -5.504757 -5.510987 -14.718532 0.000002 0.000005 -0.000002 2.057113 -6.108260 55.293561 5.419379 -4.594512 99.429386 3.163308 -4.411554 71.271269 -0.000001 -0.000001 -0.000001 2.592847 -6.426552 62.973443 4.946621 -4.648182 93.567315 3.098000 -4.388969 70.420596 -0.000000 0.000002 -0.000005 2.855010 -6.549352 66.538576 4.919116 -4.649801 93.228203 2.921297 -4.322232 68.093960 -0.000003 -0.000001 0.000002 1.542105 -5.696826 47.168207 2.898974 -4.313202 67.797346 2.788763 -4.266698 66.323930 -0.000001 -0.000000 0.000000 -19.034328 6.272983 -0.619515 52.160068 -5.472426 -0.813246 2.858994 0.049252 -1.593230 -6.304270 -0.228395 2.890648 -0.000001 0.000000 -0.000000 -4.198001 -6.266961 -3.920290 22.936308 6.146647 3.395983 -9.410661 0.678902 -5.627567 -1.006371 0.000002 -0.000001 0.000000 0.000000 0.000000 
0.144177 99.783653 3.016225 -9.310079 3.885092 4.601475 15.525206 -4.834188 -2.759339 2.925068 -1.154190 -0.635342 2.934084 -1.153601 -0.604497 -10.371922 -0.263379 1.911512 0.197897 4.154230 -0.959790 -0.000000 0.000000 -0.000000 1.706641 -3.359368 -5.358913 8.565968 -8.241562 -70.553149 0.000003 -29.599390 0.000018 -16.737339 6.774506 0.434203 -3.469776 3.607310 7.883169 9.703621 22.223523 2.891180 -5.879031 9.699131 15.674871 -0.000003 -0.000006 0.000003 0.162360 3.429608 -10.498179 0.209648 1.554735 -15.358563 0.209647 1.554737 -15.358580 -0.000000 0.000001 0.000000 0.362533 4.206372 -18.344220 0.474615 2.311797 -23.200244 0.474596 2.311783 -23.200220 0.000000 0.000000 0.000004 0.689006 4.991710 -26.673250 0.865728 3.066790 -31.521456 0.865735 3.066793 -31.521449 0.000000 -0.000000 0.000000 0.902495 5.377888 -30.995354 1.110580 3.433638 -35.838170 1.110575 3.433622 -35.838149 -0.000000 -0.000000 0.000000 0.840353 9.300993 15.386026 -3.176979 1.961098 66.385286 0.000008 20.310679 -0.000002 1.975604 -8.022748 -8.404154 -1.986184 -5.435661 -3.761600 8.766492 -20.697673 -3.062057 -5.504758 -5.510983 -14.718532 -0.000001 0.000000 0.000004 2.057112 -6.108260 55.293561 5.419379 -4.594512 99.429379 3.163308 -4.411555 71.271269 -0.000001 0.000000 -0.000003 2.592849 -6.426553 62.973443 4.946622 -4.648184 93.567315 3.098000 -4.388970 70.420589 0.000003 -0.000002 -0.000001 2.855010 -6.549352 66.538576 4.919115 -4.649799 93.228216 2.921295 -4.322231 68.093960 0.000001 0.000000 -0.000002 1.542107 -5.696826 47.168204 2.898973 -4.313201 67.797346 2.788763 -4.266696 66.323930 0.000002 -0.000000 0.000001 -20.979606 6.656732 -3.177108 44.375302 -5.771954 -0.787194 3.563029 0.410881 -0.913140 -3.682765 -0.040668 1.233410 0.000001 -0.000000 -0.000000 -2.161684 -6.471312 -4.367022 22.036678 6.085844 3.455516 -10.787205 2.265882 -5.448463 -1.006360 0.000002 0.000001 0.000000 0.000000 0.000000 
0.490555 99.867012 6.550598 -8.916679 2.640765 4.567848 15.133186 -4.464989 -3.073910 3.071574 -1.011375 -0.749277 3.078423 -1.015600 -0.727783 -10.544080 -0.235362 1.898029 -0.325817 4.390337 -0.933207 0.000000 -0.000000 0.000000 1.619450 -3.690330 -5.550791 8.560153 -4.987761 -72.140916 0.000016 -24.963078 -0.000012 -8.260751 7.807166 -3.142591 -3.469774 3.607311 7.883170 9.703620 22.223523 2.891179 -5.879028 9.699131 15.674871 -0.000000 -0.000004 0.000000 0.162361 3.429608 -10.498177 0.209648 1.554734 -15.358565 0.209647 1.554737 -15.358584 0.000000 -0.000001 -0.000005 0.362532 4.206370 -18.344218 0.474614 2.311796 -23.200244 0.474596 2.311784 -23.200225 -0.000000 0.000001 0.000000 0.689006 4.991710 -26.673245 0.865727 3.066789 -31.521453 0.865735 3.066795 -31.521446 -0.000001 0.000002 0.000001 0.902495 5.377888 -30.995357 1.110579 3.433637 -35.838170 1.110574 3.433623 -35.838146 0.000001 0.000001 0.000000 0.861980 9.160939 15.492032 -3.658764 2.305359 65.539456 -0.000005 19.683132 0.000002 2.502415 -7.948495 -8.621630 -1.986180 -5.435664 -3.761605 8.766491 -20.697669 -3.062054 -5.504758 -5.510991 -14.718533 0.000001 -0.000001 -0.000001 2.057111 -6.108260 55.293557 5.419380 -4.594515 99.429379 3.163308 -4.411556 71.271275 -0.000001 -0.000001 -0.000001 2.592848 -6.426553 62.973436 4.946621 -4.648184 93.567315 3.098006 -4.388967 70.420589 -0.000000 -0.000000 0.000002 2.855009 -6.549351 66.538569 4.919115 -4.649800 93.228209 2.921297 -4.322230 68.093953 -0.000003 0.000001 -0.000001 1.542105 -5.696827 47.168204 2.898972 -4.313200 67.797346 2.788763 -4.266697 66.323930 0.000000 0.000001 -0.000000 -21.979033 6.206473 -5.213023 33.524966 -4.729269 -0.720601 4.114753 2.094301 -1.508493 -1.795224 0.000002 -0.000001 0.000000 -0.000000 0.000001 0.823727 -6.477743 -4.657480 19.836466 5.954275 3.520998 -11.889278 3.619753 -5.085592 -0.995253 -0.000000 0.000002 -0.000000 0.000001 0.000000 
0.858339 99.786652 10.433573 -8.535901 1.642344 4.319915 14.641639 -4.090893 -3.147812 3.254833 -0.887119 -0.827765 3.259338 -0.894991 -0.815197 -10.700670 -0.207052 1.901822 -0.890492 4.691627 -0.863415 0.000000 -0.000000 -0.000000 1.536358 -3.643579 -6.019010 8.191886 -2.284654 -73.116157 0.000012 -20.228126 0.000004 1.103436 8.466431 -7.758160 -3.469774 3.607315 7.883168 9.703624 22.223523 2.891179 -5.879031 9.699131 15.674871 -0.000001 -0.000004 0.000003 0.162361 3.429609 -10.498179 0.209649 1.554733 -15.358563 0.209645 1.554737 -15.358580 0.000002 -0.000000 -0.000004 0.362533 4.206372 -18.344218 0.474616 2.311797 -23.200240 0.474597 2.311782 -23.200220 -0.000001 -0.000001 -0.000000 0.689006 4.991711 -26.673251 0.865728 3.066790 -31.521456 0.865737 3.066793 -31.521449 -0.000003 -0.000000 -0.000000 0.902496 5.377891 -30.995357 1.110579 3.433637 -35.838170 1.110575 3.433623 -35.838156 0.000003 -0.000001 0.000002 0.877664 9.064385 15.564917 -3.726238 2.600300 64.674139 -0.000004 19.610201 0.000007 2.779500 -7.981107 -8.748121 -1.986183 -5.435661 -3.761596 8.766487 -20.697669 -3.062053 -5.504756 -5.510989 -14.718532 0.000002 -0.000003 -0.000003 2.057112 -6.108258 55.293568 5.419380 -4.594512 99.429379 3.163306 -4.411557 71.271275 0.000001 0.000000 -0.000000 2.592847 -6.426551 62.973449 4.946621 -4.648185 93.567315 3.097998 -4.388971 70.420589 0.000001 -0.000001 0.000000 2.855007 -6.549351 66.538576 4.919118 -4.649802 93.228209 2.921297 -4.322230 68.093953 -0.000001 -0.000001 0.000000 1.542104 -5.696826 47.168207 2.898973 -4.313200 67.797346 2.788764 -4.266697 66.323937 -0.000001 -0.000000 0.000002 -22.327286 4.876617 -6.341745 22.321991 -1.043594 -0.292741 3.062296 5.816327 -1.432386 -1.795217 -0.000001 0.000002 0.000000 0.000001 -0.000000 4.394381 -6.239642 -4.647967 16.962882 5.813702 3.604823 -12.921917 4.437821 -4.673659 -0.988312 -0.000002 -0.000000 -0.000000 0.000000 0.000000 
